<svg id="Layer_1" data-name="Layer 1" xmlns="http://www.w3.org/2000/svg" viewBox="0 0 682.92 1024.32"><defs><style>.cls-1{fill:#101011;}.cls-2{fill:#96969d;}</style></defs><title>dark-oct_window</title><path class="cls-1" d="M0,0V1024.32H682.92V0ZM606.27,391.4,432.85,564.81H250.07L76.65,391.4V208.61L250.07,35.19H432.85L606.27,208.61Z"/><path class="cls-2" d="M353.5,773.75c-.55-.07-1.09-.1-1.64-.19a10.84,10.84,0,0,1-6.74-3.27,7.76,7.76,0,0,1-2.07-6.44c.22-1.86.62-3.71.95-5.55.69-3.82,1.39-7.63,2.1-11.46s1.4-7.59,2.1-11.39,1.45-7.85,2.18-11.78l.88-4.76c0-.19.07-.33.33-.33,2.26,0,4.52,0,6.78,0l.27,0c-.1.57-.2,1.14-.31,1.69-.69,3.73-1.36,7.45-2.05,11.18s-1.4,7.68-2.11,11.51-1.36,7.45-2.05,11.18-1.36,7.45-2.05,11.17a26.19,26.19,0,0,0-.43,2.63,4,4,0,0,0,2.6,4.22,7.19,7.19,0,0,0,8-1.91,6.16,6.16,0,0,0,1.26-3.06q1-5.84,2.11-11.69c.67-3.76,1.36-7.54,2-11.3s1.36-7.54,2.05-11.3c.28-1.5.56-3,.82-4.5,0-.09,0-.18,0-.31h-4.09c.14-.78.28-1.52.42-2.26H380.4c-.12.72-.24,1.43-.4,2.13,0,.06-.19.13-.29.13h-3.83q-4,22.38-8,44.71H360.7a2.06,2.06,0,0,0-.45,0,17.5,17.5,0,0,1-4.33.81,1.1,1.1,0,0,0-.26.06Z"/><path class="cls-2" d="M375,692.39c.12-.69.25-1.32.35-2,.69-3.8,1.36-7.57,2.05-11.37s1.4-7.73,2.11-11.61c.46-2.62,1-5.23,1.39-7.87a6.29,6.29,0,0,0,0-2.12,3,3,0,0,0-2.32-2.57,7.45,7.45,0,0,0-7.42,1.73,6.5,6.5,0,0,0-1.88,3.77c-.76,4.32-1.57,8.61-2.37,12.93-.74,4.05-1.48,8.1-2.22,12.18s-1.45,7.9-2.18,11.83c-.17.92-.34,1.85-.5,2.76,0,.17-.07.24-.26.24h-7.09c.09-.52.19-1,.28-1.56.74-4.07,1.5-8.12,2.24-12.19s1.47-8,2.21-12c.61-3.3,1.23-6.58,1.81-9.87a12.34,12.34,0,0,1,4.8-7.82,15.53,15.53,0,0,1,7.76-3.19,16.6,16.6,0,0,1,5.92.19,10,10,0,0,1,7.57,8.7,14.12,14.12,0,0,1-.32,3.88c-.64,3.45-1.25,6.92-1.87,10.38-.65,3.69-1.33,7.4-2,11.1-.26,1.41-.5,2.81-.76,4.22,0,.19-.1.28-.31.28h-6.78A.52.52,0,0,0,375,692.39Z"/><path class="cls-2" d="M309.61,771.73a1.51,1.51,0,0,0,.26,0c2.07,0,4.16,0,6.23,0a12.23,12.23,0,0,0,7.52-2.69,12.8,12.8,0,0,0,3.45-4.68,53.25,53.25,0,0,0,2.87-8.21c1.22-4.45,2.19-9,3.05-13.53q.11-.58.24-1.2h1.36q-2.93,15.71-5.86,31.39H295.62c.05-.32.11-.62.19-.93,0-.07.19-.12.29-.12,1,0,2,0,3,0h2.78c.23,0,.31,0,.36-.29.66-3.47,1.33-6.92,2-10.39.81-4.19,1.6-8.4,2.41-12.59s1.61-8.38,2.42-12.58,1.65-8.59,2.46-12.9c.26-1.33.51-2.66.76-4,.11-.53,0-.45.52-.45h6.9Q314.65,745.2,309.61,771.73Z"/><path class="cls-2" d="M315.89,700.3q4.31-22.41,8.59-44.81h-6.22c.06-.36.12-.65.17-1,0-.06.1-.09.15-.11h19.76c0,.28-.12.52-.14.78s-.14.29-.36.29H332.2c-.57,0-.45-.08-.56.49q-1.71,8.89-3.38,17.78c-1.27,6.7-2.55,13.37-3.81,20.07-.4,2.07-.79,4.15-1.19,6.22,0,.09,0,.18-.07.28C320.76,700.3,318.34,700.3,315.89,700.3Z"/><path class="cls-2" d="M304.35,705.87v6.52h3.38v1.1h-4.67v-7.62Z"/><path class="cls-2" d="M315.46,705.87h1.28v4.52c0,2.15-1.09,3.19-2.85,3.19s-2.85-1-2.85-3.18v-4.53h1.28v4.53c0,1.45.5,2.08,1.57,2.08s1.57-.63,1.57-2.08Z"/><path class="cls-2" d="M325.09,705.87h1.24v7.62h-1.14l-3.1-5.17v5.17h-1.25v-7.62H322l3.14,5.24v-5.24Z"/><path class="cls-2" d="M331,713.49h-1.37l2.66-7.62h1.21l2.66,7.62h-1.37l-.51-1.58h-2.75Zm1.88-5.76-1,3.09h2Z"/><path class="cls-2" d="M345.08,713.49h-1.41l-1.47-3.09h-1.48v3.09h-1.28v-7.62H342c1.78,0,2.81.77,2.81,2.27a2,2,0,0,1-1.38,2Zm-4.36-4.19h1.22c1.12,0,1.61-.31,1.61-1.16s-.5-1.15-1.61-1.15h-1.22Z"/><path class="cls-2" d="M356.36,709.58h2.78v.58c0,2.33-1,3.42-2.81,3.42s-2.85-1.12-2.85-3.42v-.91c0-2.35,1.07-3.49,2.85-3.49a2.62,2.62,0,0,1,2.78,2.47h-1.24a1.47,1.47,0,0,0-1.54-1.34c-1.05,0-1.57.7-1.57,2.31v1c0,1.61.52,2.32,1.57,2.32s1.45-.57,1.55-1.78h-1.52v-1.12Z"/><path class="cls-2" d="M363.39,713.49H362l2.66-7.62h1.21l2.65,7.62h-1.36l-.52-1.58h-2.74Zm1.89-5.76-1,3.09h2Z"/><path class="cls-2" d="M373.12,705.87v6.52h3.38v1.1h-4.68v-7.62Z"/><path class="cls-2" d="M380.53,713.49h-1.36l2.66-7.62H383l2.65,7.62h-1.36l-.52-1.58h-2.74Zm1.89-5.76-1,3.09h2Z"/></svg>