<svg id="Layer_1" data-name="Layer 1" xmlns="http://www.w3.org/2000/svg" viewBox="0 0 682.92 1024.32"><defs><style>.cls-1{fill:#101011;}.cls-2{fill:#222224;}</style></defs><title>oct_window</title><path class="cls-1" d="M0,0V1024.32H682.92V0ZM606.27,391.4,432.85,564.81H250.07L76.65,391.4V208.61L250.07,35.19H432.85L606.27,208.61Z"/><path class="cls-2" d="M360,821c-.85-.11-1.68-.16-2.53-.29-4-.59-7.61-2-10.4-5.06a12,12,0,0,1-3.19-9.92c.34-2.88.95-5.72,1.46-8.57q1.59-8.82,3.25-17.66c1.09-5.86,2.15-11.71,3.24-17.56,1.12-6.07,2.24-12.11,3.35-18.17l1.36-7.35c.05-.29.11-.5.51-.5,3.48,0,7,0,10.45,0l.43,0c-.16.88-.32,1.76-.48,2.61-1.07,5.75-2.1,11.49-3.17,17.24-1.09,5.91-2.15,11.84-3.24,17.75C360,779.24,359,785,357.9,790.74s-2.1,11.49-3.17,17.23c-.23,1.34-.55,2.69-.66,4a6.25,6.25,0,0,0,4,6.52,11.1,11.1,0,0,0,12.29-3,9.47,9.47,0,0,0,1.94-4.71c1.06-6,2.16-12,3.25-18,1-5.8,2.1-11.63,3.14-17.43s2.1-11.62,3.16-17.42c.43-2.32.85-4.63,1.25-7a4,4,0,0,0,.05-.48h-6.3c.21-1.19.43-2.34.64-3.48h24c-.19,1.12-.38,2.21-.62,3.3,0,.08-.29.18-.45.18h-5.91q-6.18,34.53-12.37,69h-11a3,3,0,0,0-.69.08,27.35,27.35,0,0,1-6.68,1.25,2,2,0,0,0-.4.08C362.29,821,361.15,821,360,821Z"/><path class="cls-2" d="M393.2,695.49c.19-1.06.38-2,.54-3.06,1.06-5.85,2.1-11.68,3.16-17.53s2.16-11.92,3.25-17.9c.72-4,1.49-8.07,2.15-12.14a10.25,10.25,0,0,0,0-3.27,4.57,4.57,0,0,0-3.59-4c-4.26-1.12-8.14-.43-11.44,2.66a10.12,10.12,0,0,0-2.9,5.82c-1.17,6.66-2.42,13.28-3.64,19.93q-1.73,9.38-3.43,18.78-1.68,9.15-3.36,18.25c-.26,1.41-.53,2.85-.77,4.26-.05.27-.1.37-.4.37H362.08l-.24,0c.13-.8.29-1.6.42-2.4,1.15-6.28,2.32-12.53,3.46-18.81S368,674.16,369.13,668c.93-5.08,1.89-10.13,2.79-15.21a19,19,0,0,1,7.4-12.06,24,24,0,0,1,12-4.92,25.66,25.66,0,0,1,9.12.29,15.46,15.46,0,0,1,11.68,13.41,21.59,21.59,0,0,1-.5,6c-1,5.32-1.92,10.67-2.88,16-1,5.7-2,11.42-3,17.11-.4,2.18-.78,4.34-1.18,6.52-.05.29-.15.43-.47.43H393.55A.74.74,0,0,0,393.2,695.49Z"/><path class="cls-2" d="M292.35,817.85a3.12,3.12,0,0,0,.4,0c3.19,0,6.41.05,9.6-.08a18.78,18.78,0,0,0,11.6-4.15,19.79,19.79,0,0,0,5.32-7.21,82.3,82.3,0,0,0,4.42-12.67c1.89-6.86,3.38-13.83,4.71-20.85.1-.61.24-1.23.37-1.87h2.1q-4.51,24.23-9,48.42H270.77a13.41,13.41,0,0,1,.29-1.43c0-.11.3-.19.46-.19,1.54,0,3.11,0,4.65,0h4.29c.34,0,.47-.08.55-.45,1-5.35,2.05-10.67,3.06-16,1.25-6.46,2.48-12.95,3.73-19.42s2.47-12.93,3.72-19.39c1.28-6.63,2.56-13.25,3.81-19.9.4-2.05.77-4.1,1.17-6.15.16-.82.05-.69.8-.69h10.64Q300.11,776.92,292.35,817.85Z"/><path class="cls-2" d="M302,707.68q6.63-34.56,13.25-69.09h-9.6c.1-.56.18-1,.26-1.49,0-.08.16-.14.24-.16a1.14,1.14,0,0,1,.32,0h30.14a10.64,10.64,0,0,0-.21,1.19c0,.38-.21.46-.56.46h-8.7c-.88,0-.69-.14-.85.74q-2.62,13.73-5.21,27.43-3,15.48-5.88,30.94l-1.84,9.6a2.63,2.63,0,0,1-.1.43C309.53,707.68,305.81,707.68,302,707.68Z"/><path class="cls-2" d="M284.23,716.27v10.06h5.22V728h-7.21V716.27Z"/><path class="cls-2" d="M301.37,716.27h2v7c0,3.33-1.68,4.92-4.39,4.92s-4.39-1.57-4.39-4.89v-7h2v7c0,2.23.78,3.19,2.43,3.19s2.42-1,2.42-3.19Z"/><path class="cls-2" d="M316.21,716.27h1.92V728h-1.76l-4.79-8v8h-1.91V716.27h1.7l4.84,8.09v-8.09Z"/><path class="cls-2" d="M325.31,728h-2.1l4.1-11.76h1.86l4.1,11.76h-2.11l-.79-2.45h-4.23Zm2.9-8.89-1.57,4.77h3.14Z"/><path class="cls-2" d="M347.05,728h-2.19l-2.26-4.76h-2.28V728h-2V716.27h4c2.74,0,4.33,1.2,4.33,3.51a3,3,0,0,1-2.12,3.14Zm-6.73-6.47h1.88c1.73,0,2.48-.47,2.48-1.78s-.77-1.78-2.48-1.78h-1.88Z"/><path class="cls-2" d="M364.45,722h4.28v.9c0,3.6-1.6,5.27-4.34,5.27s-4.39-1.73-4.39-5.27v-1.41c0-3.61,1.65-5.37,4.39-5.37a4,4,0,0,1,4.29,3.8h-1.92a2.27,2.27,0,0,0-2.37-2.07c-1.62,0-2.42,1.09-2.42,3.56v1.49c0,2.48.8,3.57,2.42,3.57s2.24-.88,2.4-2.74h-2.34V722Z"/><path class="cls-2" d="M375.27,728h-2.1l4.1-11.76h1.86l4.1,11.76h-2.1l-.8-2.45H376.1Zm2.93-8.89-1.57,4.77h3.14Z"/><path class="cls-2" d="M390.28,716.27v10.06h5.21V728h-7.21V716.27Z"/><path class="cls-2" d="M401.72,728h-2.1l4.09-11.76h1.87L409.67,728h-2.1l-.8-2.45h-4.23Zm2.9-8.89-1.57,4.77h3.14Z"/></svg>