<svg id="Layer_1" data-name="Layer 1" xmlns="http://www.w3.org/2000/svg" viewBox="0 0 192.79 194.68"><defs><style>.cls-1{fill:#101011;fill-rule:evenodd;}</style></defs><title>dark-Artboard 26</title><path class="cls-1" d="M94.42,194.68,78.65,130.76,63.06,115.14,0,99.33v-4L63.06,79.54,78.65,63.91,94.42,0h4l15.76,63.91,15.59,15.63,63.06,15.81v4l-63.06,15.81-15.59,15.62L98.38,194.68Zm.21-14.24V146.1L83.52,135Zm3.53-34.34v34.34L109.27,135Zm0-23.21V141.2l13-12.17,2.55-10.23ZM81.68,129,94.63,141.2V122.89l-15.5-4.09Zm36-11-1.93,7.76,7.73-9.69Zm-40.6,7.76L75.13,118l-5.8-1.93Zm21.1-6.35,16.3-4.67,4.69-15.66h-21Zm-19.83-4.67,16.3,4.67V99.11h-21Zm40.13-.81,10.24-2.56,11.44-12.29H122.57ZM64.09,111.4,74.33,114,70.22,99.11H52.65Zm69.81-1.13,44.51-11.16H145Zm-75,0L47.77,99.11H14.38ZM145,95.57h33.39L133.9,84.41Zm-22.45,0h17.57L128.7,83.28l-10.24-2.56Zm-24.41,0h21l-4.69-15.66-16.3-4.67ZM78.33,79.91,73.64,95.57h21V75.24ZM64.09,83.28,52.65,95.57H70.22l4.11-14.85ZM14.38,95.57H47.77L58.9,84.41ZM117.66,76.65l5.8,1.93-7.73-9.69ZM69.33,78.58l5.8-1.93,1.93-7.76Zm28.83-6.79,15.5,4.09-2.55-10.23-13-12.17ZM81.68,65.65,79.13,75.88l15.5-4.09V53.48Zm1.84-5.93L94.63,48.58V14.24ZM98.16,48.58l11.11,11.14L98.16,14.24Z"/></svg>