<svg xmlns="http://www.w3.org/2000/svg" viewBox="0 0 724.95 680"><defs><style>.cls-1{fill:#101011;}.cls-2{fill:#222224;}</style></defs><title>mobileoct_window copy 3</title><g id="Layer_11" data-name="Layer 11"><path class="cls-1" d="M-7.85,0V680.7H364.82V0Zm340,510.41V573l-29.62,55.52L248.2,655.64l-66-.44H116.5L62.2,628.05,32.59,572.53V108.17L62.2,52.64,116.5,25.5h65.65l66,.44,54.29,27.14,29.62,55.53v401.8Z"/><path class="cls-1" d="M359.9.25V681H732.59V.25ZM692.16,510.66v62.56l-29.62,55.53L608.25,655.9l-66-.44H476.54l-54.29-27.15-29.61-55.53V108.43L422.25,52.9l54.29-27.15H542.2l66,.44,54.29,27.15,29.62,55.53V510.66Z"/><path class="cls-2" d="M-90.66,660.16v-4.92h31.18L-21,636,0,596.64V84.08L-21,44.73-59.48,25.48H-90.66V20.57H156v4.91H124.85L86.35,44.73l-21,39.35V596.64l21,39.36,38.5,19.24H156v4.92ZM95.1,655.24h18.84L89.21,643.47Zm-29.73,0H89.56L81.79,639.7,65.37,631Zm-30.23,0H60.45V25.48H35.14Zm-30.22,0h25.3V25.48H4.92ZM-16.42,639.7l-7.78,15.54H0V631Zm-32.16,15.54h18.84l5.89-11.77Zm114-29.73,13.75,6.88L65.37,607.16Zm-79.12,6.88L0,625.51V607.16ZM65.37,55.22V73.56L79.12,48.34ZM0,73.56V55.22l-13.75-6.88ZM65.37,49.72,81.79,41l7.77-15.54H65.37ZM-16.42,41,0,49.72V25.48H-24.2Zm-7.43-3.76-5.89-11.78H-48.58Zm113.06,0,24.73-11.78H95.1Z"/><path class="cls-2" d="M208.81,660.16v-4.92H240L278.48,636l21-39.36V84.08l-21-39.35L240,25.48H208.81V20.57H455.5v4.91H424.31L385.82,44.73l-21,39.35V596.64l21,39.36,38.49,19.24H455.5v4.92Zm185.76-4.92h18.84l-24.73-11.77Zm-29.74,0H389l-7.77-15.54L364.83,631Zm-30.22,0h25.3V25.48h-25.3Zm-30.22,0h25.3V25.48h-25.3ZM283.05,639.7l-7.78,15.54h24.2V631Zm-32.16,15.54h18.84l5.89-11.77Zm113.94-29.73,13.75,6.88-13.75-25.23Zm-79.11,6.88,13.75-6.88V607.16ZM364.83,55.22V73.56l13.75-25.22ZM299.47,73.56V55.22l-13.75-6.88Zm65.36-23.84L381.25,41,389,25.48H364.83ZM283.05,41l16.42,8.7V25.48h-24.2Zm-7.43-3.76-5.89-11.78H250.89Zm113.06,0,24.73-11.78H394.57Z"/><path class="cls-2" d="M269.23,660.16v-4.92h31.19L338.91,636l21-39.36V84.08l-21-39.35L300.42,25.48H269.23V20.57H515.92v4.91H484.74L446.25,44.73l-21,39.35V596.64l21,39.36,38.49,19.24h31.18v4.92ZM455,655.24h18.84l-24.73-11.77Zm-29.74,0h24.19l-7.77-15.54L425.26,631Zm-30.22,0h25.3V25.48H395Zm-30.22,0h25.3V25.48h-25.3ZM343.48,639.7l-7.78,15.54h24.2V631Zm-32.16,15.54h18.84l5.89-11.77Zm113.94-29.73L439,632.39l-13.75-25.23Zm-79.11,6.88,13.75-6.88V607.16ZM425.26,55.22V73.56L439,48.34ZM359.9,73.56V55.22l-13.75-6.88Zm65.36-23.84L441.68,41l7.77-15.54H425.26ZM343.48,41l16.42,8.7V25.48H335.7Zm-7.43-3.76-5.89-11.78H311.32Zm113.06,0,24.73-11.78H455Z"/><path class="cls-2" d="M568.81,660.62v-4.91H600l38.5-19.25,21-39.36V84.55l-21-39.36L600,25.94H568.81V21H815.5v4.91H784.32L745.83,45.19l-21,39.36V597.1l21,39.36,38.49,19.25H815.5v4.91Zm185.76-4.91h18.85l-24.73-11.78Zm-29.73,0H749l-7.77-15.55-16.42-8.69Zm-30.22,0h25.3V25.94h-25.3Zm-30.23,0H689.7V25.94H664.39Zm-21.34-15.55-7.78,15.55h24.2V631.47ZM610.9,655.71h18.84l5.89-11.78ZM724.84,626l13.75,6.88-13.75-25.23Zm-79.12,6.88L659.47,626V607.62ZM724.84,55.69V74l13.75-25.22ZM659.47,74V55.69l-13.75-6.88Zm65.37-23.85,16.42-8.69L749,25.94H724.84Zm-81.79-8.69,16.42,8.69V25.94h-24.2Zm-7.42-3.77-5.89-11.78H610.9Zm113.06,0,24.73-11.78H754.57Z"/><rect class="cls-1" x="-7.85" y="110.21" width="40.44" height="43.72"/></g></svg>