<svg id="Layer_1" data-name="Layer 1" xmlns="http://www.w3.org/2000/svg" viewBox="0 0 682.92 1024.32"><defs><style>.cls-1{fill:#eee;}.cls-2{fill:#fff;fill-rule:evenodd;}</style></defs><title>oct_window</title><path class="cls-1" d="M0,0V1024.32H682.92V0ZM606.27,391.4,432.85,564.81H250.07L76.65,391.4V208.61L250.07,35.19H432.85L606.27,208.61Z"/><path class="cls-2" d="M369.3,749.18l-12.5-12.53-13.07-53h-4.54l-13.07,53-12.5,12.53-52.28,13.11v4.55l52.28,13.1,12.5,12.54,13.07,53h4.54l13.07-53,12.5-12.54,52.28-13.1v-4.55Zm-45.45-4.55-.57,2.27-1.71.57Zm-8.53,9.11,6.82-1.71-2.84,10.26H307.37Zm-7.38,1.71-6.82,6.84H280.66Zm-27.28,11.39h20.46l6.82,6.84Zm26.71,0H319.3l2.84,10.26-6.82-1.71Zm14.2,14.81,1.71.57.57,2.28Zm17.62,44.44-6.82-27.92,6.82,6.84Zm0-27.35-9.09-8.54-1.71-6.84,10.8,2.85Zm0-17.09-11.94-3.41-3.4-11.4h15.34Zm0-19.36H323.85l3.4-11.4,11.94-3.42Zm0-19.37-10.8,2.84,1.71-6.83,9.09-8.55Zm0-18.8L332.37,731,339.19,703Zm36.36,38.17H363.62L360.78,752l6.82,1.71Zm-14.2-14.82-1.71-.57-.57-2.27ZM343.73,703,350.55,731l-6.82-6.83Zm0,27.34,9.09,8.55,1.71,6.83-10.8-2.84Zm0,17.09,11.93,3.42,3.41,11.4H343.73Zm0,78.62V805l6.82-6.84Zm9.09-35.89-9.09,8.54V786.21l10.8-2.85Zm2.84-12-11.93,3.41V766.84h15.34Zm3.41,6.26.57-2.28,1.71-.57Zm8.53-9.11-6.82,1.71,2.84-10.26h11.93Zm7.38-1.71,6.82-6.84h20.46Zm6.82-11.39L375,755.45l27.28,6.84Z"/></svg>