<svg id="Layer_1" data-name="Layer 1" xmlns="http://www.w3.org/2000/svg" viewBox="0 0 682.92 1024.32"><defs><style>.cls-1{fill:#eee;}.cls-2{fill:#fff;fill-rule:evenodd;}</style></defs><title>oct_window</title><path class="cls-1" d="M0,0V1024.32H682.92V0ZM606.27,391.4,432.85,564.81H250.07L76.65,391.4V208.61L250.07,35.19H432.85L606.27,208.61Z"/><path class="cls-2" d="M375.31,725.87l-15.2-15.24-15.89-64.41H338.7l-15.89,64.41-15.2,15.24-63.55,15.92v5.54l63.55,15.93,15.2,15.24,15.89,64.4h5.52l15.89-64.4,15.2-15.24,63.55-15.93v-5.54Zm-55.26-5.55-.69,2.77-2.08.7Zm-10.36,11.09,8.28-2.08-3.45,12.46H300Zm-9,2.07-8.29,8.31H267.55Zm-33.16,13.85h24.87l8.29,8.31Zm32.46,0h14.51L318,759.8l-8.28-2.08Zm17.27,18,2.08.69.69,2.77Zm21.42,54-8.29-33.94,8.29,8.31Zm0-33.24-11.06-10.39-2.07-8.31,13.13,3.46Zm0-20.78-14.51-4.16-4.14-13.85H338.7Zm0-23.55H320.05l4.14-13.85,14.51-4.15Zm0-23.54-13.13,3.46,2.07-8.31L338.7,703Zm0-22.86-8.29,8.31,8.29-33.93Zm44.21,46.4H368.4L365,729.33l8.28,2.08Zm-17.27-18-2.08-.7-.69-2.77Zm-21.42-54,8.29,33.93-8.29-8.31Zm0,33.24,11.06,10.39,2.07,8.31-13.13-3.46Zm0,20.78,14.51,4.15,4.14,13.85H344.22Zm0,95.57V793.73l8.29-8.31Zm11.06-43.63-11.06,10.39V770.88l13.13-3.46Zm3.45-14.55-14.51,4.16v-18h18.65Zm4.14,7.62.69-2.77,2.08-.69Zm10.36-11.08L365,759.8l3.45-12.47h14.51Zm9-2.08,8.29-8.31h24.87Zm8.29-13.85-8.29-8.31,33.16,8.31Z"/></svg>