<svg id="Layer_1" data-name="Layer 1" xmlns="http://www.w3.org/2000/svg" viewBox="0 0 3307.41 686.82"><defs><style>.cls-1{fill:#96969d;}</style></defs><title>Artboard 30</title><path class="cls-1" d="M0,686.82v-7.4H35.13L97.06,648,324.46,0h70.25L606.4,633.2l30.5,30.51,47.15,15.71h35.12v7.4H453v-7.4h35.13l39.74-20.33,9.25-15.72L487.15,492.7H159L105.38,648l61,31.43h35.13v7.4ZM161.77,485.3H484.38L327.23,14.79Z"/><path class="cls-1" d="M776.48,686.82v-7.4h34.2l40.67-20.33,22.19-41.6V69.33l-22.19-41.6L810.68,7.4h-34.2V0h361.43L1235,32.35l34.2,33.28,32.36,65.63v68.41l-32.36,64.7L1235,299.5l-54.54,27.73,86.9,28.66,34.2,33.28,32.35,65.63V555.56l-31.43,64.7-35.12,34.2-97.07,32.36ZM945.64,323.53h220.93l62.86-125.71V133.11l-30.51-62.86L1135.14,7.4H1008.5L967.82,27.73l-22.18,41.6Zm62.86,355.89h159l63.78-62.85,30.51-62.86V456.65l-30.51-62.86-63.78-62.86H945.64V617.49l22.18,41.6Z"/><path class="cls-1" d="M1652.79,686.82l-98-32.36-65.63-65.63-33.28-66.55-32.36-129.42V294l32.36-129.41L1489.18,98l65.63-65.63,98-32.35h131.26l98,32.35L1947.67,98,1981,164.54,2013.3,294v98.91L1981,522.28l-33.28,66.55L1882,654.46l-98,32.36Zm2.78-7.4h125.71l95.21-95.21,32.36-63.78,32.35-128.49V294.88l-32.35-128.49-32.36-63.78L1781.28,7.4H1655.57l-95.22,95.21L1528,166.39l-32.35,128.49v97.06L1528,520.43l32.35,63.78Z"/><path class="cls-1" d="M2332.2,686.82l-97.06-32.36-34.2-33.27-33.28-98.91V69.33l-22.19-41.6L2104.8,7.4h-34.2V0h266.22V7.4h-34.2L2262,27.73l-22.19,41.6v451.1l32.36,96.14L2335,679.42h126.64L2556.83,648l32.35-31.42,31.43-95.22V38.82L2557.75,7.4h-34.2V0h201.51V7.4h-34.2L2628,38.82V522.28l-32.35,98-35.13,34.2-97.06,32.36Z"/><path class="cls-1" d="M2911.78,686.82v-7.4H2946l40.67-20.33,22.19-41.6V69.33l-22.19-41.6L2946,7.4H2916.4l-75.8,18.48L2811,69.33l-21.26,130.34h-7.4V0h525V199.67H3300L3278.76,69.33l-29.58-43.45L3173.38,7.4H3143.8l-40.67,20.33-22.19,41.6V617.49l22.19,41.6,40.67,20.33H3178v7.4Z"/></svg>