<svg id="Layer_1" data-name="Layer 1" xmlns="http://www.w3.org/2000/svg" viewBox="0 0 98.38 194.68"><defs><style>.cls-1{fill:#96969d;fill-rule:evenodd;}</style></defs><title>arrow-star</title><path class="cls-1" d="M98.38,194.68h-4L78.65,130.76,63.06,115.14,0,99.33v-4L63.06,79.54,78.65,63.91,94.42,0h4M94.63,180.44V146.1L83.52,135Zm3.53-34.34v34.34m0-57.55V141.2M81.68,129,94.63,141.2V122.89l-15.5-4.09Zm-4.62-3.24L75.13,118l-5.8-1.93Zm21.1-26.68v20.33m-19.83-4.67,16.3,4.67V99.11h-21ZM64.09,111.4,74.33,114,70.22,99.11H52.65Zm-5.19-1.13L47.77,99.11H14.38Zm39.26-35V95.57M78.33,79.91,73.64,95.57h21V75.24ZM64.09,83.28,52.65,95.57H70.22l4.11-14.85ZM14.38,95.57H47.77L58.9,84.41Zm55-17,5.8-1.93,1.93-7.76Zm28.83-25.1V71.79M81.68,65.65,79.13,75.88l15.5-4.09V53.48Zm1.84-5.93L94.63,48.58V14.24ZM98.16,14.24V48.58"/></svg>