<svg id="Layer_1" data-name="Layer 1" xmlns="http://www.w3.org/2000/svg" viewBox="0 0 32 32"><defs><style>.cls-1{fill-rule:evenodd;}</style></defs><title>faviconArtboard 32</title><path class="cls-1" d="M21.56,13l-2.5-2.48L16.45,0h-.9L12.94,10.48,10.44,13,0,15.55v.9L10.44,19l2.5,2.48L15.55,32h.9l2.61-10.48L21.56,19,32,16.45v-.9Zm-9.08-.9-.11.45-.34.11Zm-1.7,1.8,1.36-.34-.57,2H9.19Zm-1.47.34L7.94,15.55H3.86ZM3.86,16.45H7.94L9.31,17.8Zm5.33,0h2.38l.57,2-1.36-.34ZM12,19.38l.34.11.11.45Zm3.52,8.79-1.37-5.52L15.55,24Zm0-5.41-1.82-1.69-.34-1.35,2.16.56Zm0-3.38-2.39-.68-.68-2.25h3.07Zm0-3.83H12.48l.68-2.25,2.39-.68Zm0-3.83-2.16.56.34-1.35,1.82-1.69Zm0-3.72L14.18,9.35l1.37-5.52Zm7.26,7.55H20.43l-.57-2,1.36.34ZM20,12.62l-.34-.11-.11-.45ZM16.45,3.83l1.37,5.52L16.45,8Zm0,5.41,1.82,1.69.34,1.35-2.16-.56Zm0,3.38,2.39.68.68,2.25H16.45Zm0,15.55V24l1.37-1.35Zm1.82-7.1-1.82,1.69V20.28l2.16-.56Zm.57-2.37-2.39.68V16.45h3.07Zm.68,1.24.11-.45.34-.11Zm1.7-1.8-1.36.34.57-2h2.38Zm1.48-.34,1.36-1.35h4.08Zm1.36-2.25L22.7,14.2l5.44,1.35Z"/></svg>