<svg id="Layer_1" data-name="Layer 1" xmlns="http://www.w3.org/2000/svg" viewBox="0 0 2660.34 686.82"><defs><style>.cls-1{fill:#96969d;}</style></defs><title>Artboard 28</title><path class="cls-1" d="M0,686.82v-7.4H34.2l40.68-20.33,22.18-41.6V69.33L74.88,27.73,34.2,7.4H0V0H266.22V7.4H232L191.35,27.73l-22.19,41.6V617.49l22.19,41.6L232,679.42h95.21l110-23.11L464,617.49,485.3,487.15h7.4V686.82Z"/><path class="cls-1" d="M550,686.82v-7.4h34.2l40.67-20.33,22.19-41.6V69.33l-22.19-41.6L584.2,7.4H550V0H816.22V7.4H782L741.34,27.73l-22.18,41.6V617.49l22.18,41.6L782,679.42h34.2v7.4Z"/><path class="cls-1" d="M905.88,686.82v-7.4h34.2L1002.94,648V71.18L981.68,28.66,939.16,7.4H905.88V0h168.24l381.77,669.25V38.82L1393,7.4h-34.2V0h201.51V7.4h-34.2l-62.86,31.42v648h-71.17L1010.34,17.56V648l62.85,31.43h34.21v7.4Z"/><path class="cls-1" d="M1617.65,686.82v-7.4h34.2l40.67-20.33,22.19-41.6V69.33l-22.19-41.6L1651.85,7.4h-34.2V0h492.69V199.67H2103L2081.69,69.33,2054.88,30.5l-110-23.1h-95.21L1809,27.73l-22.18,41.6v254.2h60.08l85-21.26,20.33-20.33,21.26-86h7.4V458.5h-7.4l-21.26-86-20.33-20.34-85-21.26h-60.08V617.49l22.18,41.6,40.68,20.33h127.56l110-23.11L2114,617.49l21.26-130.34h7.4V686.82Z"/><path class="cls-1" d="M2264.7,686.82V486.23h7.39l18.49,93.36,33.28,49.92,75.8,49.91H2494l63.78-62.85,30.5-63.79V489l-31.43-62.86-193.19-95.21-66.56-65.63-32.35-65.63V132.19l32.35-66.56,34.2-33.28L2428.32,0h67.48L2591,31.43,2623.36,0H2628V200.59h-7.39l-18.49-93.36-33.28-49.92L2493,7.4h-61.93l-63.78,62.85L2336.8,134v63.78l31.43,62.86,193.2,95.21L2628,421.52l32.36,65.63v67.48L2628,621.19l-34.2,33.27-97.06,32.36h-99.83l-95.22-31.43-32.35,31.43Z"/></svg>