<svg id="Layer_1" data-name="Layer 1" xmlns="http://www.w3.org/2000/svg" viewBox="0 0 3663.3 686.82"><defs><style>.cls-1{fill:#222224;}</style></defs><title>PEOPLE</title><path class="cls-1" d="M0,686.82v-7.4H34.2l40.68-20.33,22.18-41.6V69.33L74.88,27.73,34.2,7.4H0V0H392.86l98.91,33.28L526,66.56l31.42,64.7V232L526,296.73,491.77,330l-98.91,33.27H169.16V617.49l22.19,41.6L232,679.42h34.2v7.4ZM169.16,355.89H391L454.8,293l30.5-62.86V133.11L454.8,70.25,391,7.4H232L191.35,27.73l-22.19,41.6Z"/><path class="cls-1" d="M647.07,686.82v-7.4h34.2l40.67-20.33,22.19-41.6V69.33l-22.19-41.6L681.27,7.4h-34.2V0h492.69V199.67h-7.39L1111.11,69.33,1084.3,30.5,974.3,7.4H879.09L838.41,27.73l-22.18,41.6v254.2h60.08l85.05-21.26,20.33-20.33L1003,196h7.4V458.5H1003l-21.26-86-20.33-20.34-85.05-21.26H816.23V617.49l22.18,41.6,40.68,20.33h127.56l110-23.11,26.81-38.82,21.26-130.34h7.4V686.82Z"/><path class="cls-1" d="M1491,686.82l-98-32.36-65.63-65.63-33.28-66.55-32.35-129.42V294l32.35-129.41L1327.41,98,1393,32.35,1491,0h131.27l98,32.35L1785.9,98l33.28,66.56L1851.53,294v98.91l-32.35,129.42-33.28,66.55-65.63,65.63-98,32.36Zm2.78-7.4h125.71l95.22-95.21,32.35-63.78,32.35-128.49V294.88l-32.35-128.49-32.35-63.78L1619.51,7.4H1493.8l-95.21,95.21-32.36,63.78-32.35,128.49v97.06l32.35,128.49,32.36,63.78Z"/><path class="cls-1" d="M1941.19,686.82v-7.4h34.2l40.67-20.33,22.19-41.6V69.33l-22.19-41.6L1975.39,7.4h-34.2V0h392.86L2433,33.28l34.2,33.28,31.43,64.7V232l-31.43,64.71L2433,330l-98.91,33.27h-223.7V617.49l22.18,41.6,40.68,20.33h34.2v7.4Zm169.16-330.93H2332.2L2396,293l30.51-62.86V133.11L2396,70.25,2332.2,7.4h-159l-40.68,20.33-22.18,41.6Z"/><path class="cls-1" d="M2588.25,686.82v-7.4h34.21l40.67-20.33,22.18-41.6V69.33l-22.18-41.6L2622.46,7.4h-34.21V0h266.23V7.4h-34.21L2779.6,27.73l-22.18,41.6V617.49l22.18,41.6,40.67,20.33h95.22l110-23.11,26.81-38.82,21.26-130.34H3081V686.82Z"/><path class="cls-1" d="M3138.25,686.82v-7.4h34.2l40.68-20.33,22.18-41.6V69.33l-22.18-41.6L3172.45,7.4h-34.2V0H3631V199.67h-7.4L3602.29,69.33,3575.48,30.5l-110-23.1h-95.21L3329.6,27.73l-22.19,41.6v254.2h60.09l85-21.26,20.34-20.33,21.26-86h7.39V458.5h-7.39l-21.26-86-20.34-20.34-85-21.26h-60.09V617.49l22.19,41.6,40.67,20.33h127.57l110-23.11,26.81-38.82,21.26-130.34h7.39V686.82Z"/></svg>