<svg id="Layer_1" data-name="Layer 1" xmlns="http://www.w3.org/2000/svg" viewBox="0 0 3888.01 686.51"><defs><style>.cls-1{fill:#222224;}</style></defs><title>TICKETS</title><path class="cls-1" d="M129.36,686.51v-7.39h34.18l40.66-20.33,22.17-41.58V69.3L204.2,27.72,163.54,7.39H134L58.21,25.87,28.64,69.3,7.39,199.58H0V0H524.81V199.58h-7.39L496.17,69.3,466.6,25.87,390.84,7.39H361.27L320.62,27.72,298.44,69.3V617.21l22.18,41.58,40.65,20.33h34.19v7.39Z"/><path class="cls-1" d="M614.43,686.51v-7.39h34.19l40.65-20.33,22.18-41.58V69.3L689.27,27.72,648.62,7.39H614.43V0H880.54V7.39H846.35L805.69,27.72,783.52,69.3V617.21l22.17,41.58,40.66,20.33h34.19v7.39Z"/><path class="cls-1" d="M1198.38,686.51l-97-32.34-66.53-65.6-32.34-64.68-32.33-131.2V293.82l32.33-131.2,32.34-64.68,67.45-65.6L1199.3,0h131.2l96.1,31.41,35.11-34.18h.92V199.58h-7.39l-18.48-92.4L1403.5,57.29l-75.77-49.9H1202.07L1106,102.56l-31.42,63.75-32.34,128.44v97l32.34,128.43L1105.05,584l96.1,95.17h96.09l95.17-31.42L1456.16,584,1487.58,486l7.39,2.77-32.34,98.86-66.53,66.53-97,32.34Z"/><path class="cls-1" d="M1584.59,686.51v-7.39h34.18l40.66-20.33,22.17-41.58V69.3l-22.17-41.58L1618.77,7.39h-34.18V0h266.1V7.39H1816.5l-40.65,20.33L1753.67,69.3V383.45L2100.16,37,2038.25,7.39H2005V0h201.43V7.39h-33.27L2109.4,37.88,1856.23,291.05h58.21l161.7,323.39,34.18,34.19,61.91,30.49h34.19v7.39H1940.31v-7.39h34.19L2005,663.41V618.13l-159.84-316-91.48,91.47v223.6l22.18,41.58,40.65,20.33h34.19v7.39Z"/><path class="cls-1" d="M2263.69,686.51v-7.39h34.19l40.65-20.33,22.18-41.58V69.3l-22.18-41.58L2297.88,7.39h-34.19V0h492.47V199.58h-7.39L2727.52,69.3l-26.79-38.81-110-23.1h-95.16L2455,27.72,2432.78,69.3V323.39h60l85-21.25,20.33-20.33,21.25-85.93h7.39V458.29h-7.39l-21.25-85.93L2577.84,352l-85-21.25h-60V617.21L2455,658.79l40.66,20.33h127.5l110-23.1,26.79-38.81,21.25-130.28h7.39V686.51Z"/><path class="cls-1" d="M3007.48,686.51v-7.39h34.18l40.66-20.33,22.17-41.58V69.3l-22.17-41.58L3041.66,7.39H3012.1l-75.77,18.48L2906.76,69.3l-21.25,130.28h-7.39V0h524.82V199.58h-7.4L3374.29,69.3l-29.56-43.43L3269,7.39h-29.57l-40.65,20.33L3176.56,69.3V617.21l22.18,41.58,40.65,20.33h34.19v7.39Z"/><path class="cls-1" d="M3492.55,686.51V486h7.4l18.48,93.32,33.26,49.89,75.76,49.9h94.25l63.75-62.83,30.49-63.76V488.78L3784.53,426l-193.11-95.17-66.53-65.6-32.34-65.6V132.13l32.34-66.53,34.19-33.26L3656.1,0h67.45l95.17,31.41L3851.05,0h4.62V200.5h-7.39l-18.48-93.32-33.26-49.89-75.77-49.9h-61.9l-63.75,62.83L3564.62,134v63.75L3596,260.56l193.11,95.17,66.52,65.6,32.34,65.6v67.45l-32.34,66.53-34.18,33.26-97,32.34h-99.79l-95.17-31.42-32.34,31.42Z"/></svg>